<svg xmlns="http://www.w3.org/2000/svg" width="1122" height="1122" viewBox="0 0 1122 1122" version="1.1"><path d="M 724 193.220 C 713.352 197.003, 687.546 200.309, 678.377 199.064 C 672.107 198.214, 669.600 198.864, 653.592 205.490 C 637.685 212.075, 629.644 214.241, 605.500 218.446 C 590.744 221.016, 586.324 220.511, 583.629 215.950 C 581.950 213.106, 581.979 212.915, 584.960 207.271 C 587.968 201.578, 587.980 201.495, 585.855 201.161 C 584.671 200.974, 582.756 201.264, 581.601 201.805 C 576.982 203.967, 560.234 208.498, 547.500 211.031 C 544.200 211.687, 539.250 212.802, 536.500 213.509 C 533.750 214.216, 529.858 215.078, 527.851 215.423 C 519.963 216.784, 517.838 220.671, 511.686 245 C 506.820 264.246, 505.116 275.997, 504.027 297.840 C 502.692 324.591, 500.964 326.186, 487.605 313.001 C 477.710 303.236, 473.863 300.559, 467.896 299.286 C 461.097 297.837, 457.233 299.434, 453.704 305.152 C 451 309.534, 450.210 311.772, 447.930 321.500 C 444.368 336.697, 444.404 347.627, 448.043 355.368 C 449.155 357.735, 451.650 361.208, 453.586 363.086 C 457.076 366.471, 457.196 366.503, 467.620 366.843 C 477.234 367.157, 478.200 367.366, 478.912 369.291 C 479.340 370.449, 479.234 372.886, 478.675 374.707 C 477.714 377.840, 477.875 378.201, 481.698 381.473 C 483.925 383.380, 485.994 386.179, 486.312 387.715 C 487.478 393.354, 496.914 405.780, 507.188 415.205 C 527.075 433.448, 534.447 441.279, 537.446 447.346 C 539.036 450.562, 541.160 453.708, 542.168 454.337 C 545.073 456.151, 544.387 458.850, 538.250 469.761 C 528.859 486.458, 516.502 498.547, 500 507.183 C 491.019 511.883, 482.928 514.044, 473.389 514.290 C 463.783 514.539, 463.820 514.148, 472.341 525.404 C 491.415 550.600, 513.593 571.779, 531.870 582.248 C 547.820 591.386, 561.275 596.285, 581 600.138 C 590.711 602.034, 619.096 601.774, 626 599.724 C 633.326 597.549, 638.808 595.526, 639.648 594.685 C 640.025 594.308, 640.961 594, 641.729 594 C 644.461 594, 654.639 588.581, 663.681 582.312 C 668.912 578.685, 676.541 572.039, 681.414 566.862 C 688.662 559.163, 690.898 555.907, 696.070 545.518 C 702.396 532.811, 703.197 528.774, 699.500 528.221 C 693.978 527.395, 692.289 526.465, 686.755 521.199 C 679.136 513.950, 672.552 504.750, 669.061 496.477 C 667.557 492.910, 666.025 489.692, 665.658 489.325 C 665.291 488.958, 659.480 488.564, 652.745 488.450 C 628.215 488.036, 607.991 481.194, 601.831 471.227 C 600.076 468.387, 599.931 467.447, 600.915 465.287 C 602.048 462.800, 602.293 462.740, 608.792 463.351 C 612.481 463.698, 618.650 464.933, 622.500 466.096 C 626.350 467.258, 632.425 468.820, 636 469.568 C 643.800 471.198, 665.257 471.420, 671.807 469.938 C 674.388 469.354, 678.525 468.409, 681 467.837 C 693.578 464.930, 709.660 455.911, 720.825 445.502 C 731.797 435.273, 742.217 419.555, 746.018 407.500 C 746.711 405.300, 747.642 402.375, 748.086 401 C 748.530 399.625, 749.705 394.675, 750.697 390 C 753.958 374.630, 752.554 290.122, 747.883 220.579 L 746.747 203.657 740.132 197.329 C 736.120 193.491, 732.726 191.052, 731.508 191.133 C 730.404 191.206, 727.025 192.145, 724 193.220 M 706.444 249.865 C 700.266 250.959, 692.810 255.673, 693.191 258.245 C 693.481 260.207, 694.145 260.340, 704 260.418 C 716.865 260.519, 721.202 262.374, 730.488 271.750 C 736.839 278.162, 739.717 279.295, 743.104 276.714 C 745.548 274.854, 746.217 271.519, 745.031 267.116 C 743.746 262.343, 737.217 256.194, 729.614 252.597 C 723.976 249.930, 713.232 248.663, 706.444 249.865 M 600.781 252.399 C 594.149 255.127, 586.317 259.969, 583.241 263.244 C 579.953 266.743, 575.027 277.131, 575.013 280.595 C 575.006 282.321, 575.798 284.412, 576.804 285.322 C 578.499 286.856, 578.961 286.598, 584.472 281.028 C 591.054 274.377, 596.182 271.817, 606.500 270.032 C 618.635 267.933, 621.996 266.820, 624.038 264.225 C 626.258 261.403, 626.488 259.166, 624.915 255.712 C 622.152 249.648, 611.146 248.137, 600.781 252.399 M 714.444 282.369 C 709.237 284.296, 705.990 286.946, 702.937 291.760 C 699.644 296.954, 699.020 302.941, 701.553 305.044 C 702.878 306.143, 703.947 305.500, 708.832 300.666 C 714.136 295.418, 714.899 295, 719.190 295 C 723.100 295, 724.212 295.463, 726.325 297.975 C 727.702 299.611, 729.374 302.648, 730.040 304.725 C 731.687 309.853, 733.775 312, 737.116 312 C 742.901 312, 745.902 304.132, 743.014 296.537 C 741.388 292.259, 735.007 286.149, 729.396 283.494 C 723.807 280.850, 719.438 280.521, 714.444 282.369 M 604.537 288.056 C 595.509 292.560, 590.376 300.654, 591.556 308.524 C 592.367 313.931, 595.063 314.677, 596.989 310.028 C 599.541 303.865, 608.073 297, 613.179 297 C 617.923 297, 623.755 300.599, 625.934 304.870 C 631.174 315.142, 642.289 310.619, 637.562 300.138 C 632.305 288.480, 615.796 282.440, 604.537 288.056 M 456.750 320.692 C 454.580 321.256, 454.516 323.332, 456.571 326.468 C 457.768 328.294, 457.887 329.343, 457.071 330.867 C 453.199 338.103, 460.973 345.156, 467.990 340.774 C 469.702 339.705, 470.436 340.016, 473.727 343.207 C 479.912 349.203, 485.686 349.442, 488.592 343.821 C 489.456 342.151, 489.902 339.747, 489.584 338.480 C 487.774 331.268, 464.525 318.673, 456.750 320.692 M 685.250 320.703 C 683.414 321.384, 683.728 324.444, 685.829 326.345 C 686.835 327.255, 687.981 328, 688.377 328 C 689.627 328, 693.817 333.355, 695.565 337.186 C 698.855 344.400, 694.994 351.672, 687.348 352.662 C 682.968 353.229, 675.402 350.113, 668.239 344.792 L 663.978 341.626 661.239 343.662 C 657.811 346.210, 657.107 350.882, 659.787 353.307 C 660.823 354.244, 665.144 356.809, 669.389 359.006 C 676.235 362.549, 677.898 363, 684.103 363 C 688.226 363, 692.239 362.410, 693.875 361.565 C 698.387 359.232, 703.780 352.481, 705.346 347.206 C 708.055 338.086, 703.212 325.773, 695.690 322.654 C 691.685 320.994, 686.884 320.096, 685.250 320.703 M 640.460 397.065 C 637.848 401.291, 644.989 411.380, 653.561 415.573 C 658.644 418.061, 659.782 418.232, 668.290 417.787 C 678.332 417.261, 681.674 416.040, 688.750 410.309 C 693.571 406.403, 693.839 405.337, 690.927 401.635 C 687.919 397.810, 685.106 398.224, 677.486 403.611 C 668.087 410.257, 656.603 408.501, 647.532 399.033 C 644.579 395.951, 641.652 395.136, 640.460 397.065 M 231.686 834.750 C 231.008 835.928, 230.073 843.468, 228.988 856.500 C 228.439 863.100, 227.305 875.250, 226.468 883.500 C 224.216 905.716, 223.087 918.058, 222.034 932 C 221.515 938.875, 220.647 949.900, 220.106 956.500 C 218.103 980.931, 216.921 1002.005, 216.517 1020.500 C 216.289 1030.950, 215.650 1051.200, 215.097 1065.500 C 214.544 1079.800, 214.071 1098.362, 214.046 1106.750 L 214 1122 272.847 1122 L 331.694 1122 332.412 1110.250 C 334.469 1076.582, 335.001 1068.223, 335.990 1054 C 336.583 1045.475, 337.514 1032.650, 338.059 1025.500 C 338.604 1018.350, 339.482 999.900, 340.010 984.500 C 340.538 969.100, 341.392 951.325, 341.908 945 C 342.423 938.675, 343.332 927.425, 343.928 920 C 344.523 912.575, 345.434 902.225, 345.953 897 C 348.091 875.470, 348.300 868.804, 346.866 867.896 C 346.115 867.420, 342.827 867.024, 339.560 867.015 C 324.386 866.976, 282.845 856.364, 261.500 847.074 C 254.077 843.844, 251.458 842.658, 242.712 838.573 C 232.006 833.572, 232.305 833.675, 231.686 834.750 M 858.500 846.087 C 855.750 847.130, 850.125 849.141, 846 850.557 C 841.875 851.972, 837.600 853.543, 836.500 854.047 C 832.696 855.791, 826.488 856.656, 823.524 855.856 C 821.887 855.414, 820.273 855.378, 819.937 855.776 C 818.515 857.462, 824.489 918.225, 829.496 953 C 830.407 959.325, 831.544 967.425, 832.024 971 C 833.745 983.826, 835.073 991.590, 836.473 997 C 837.802 1002.132, 838.328 1005.153, 840.965 1022.754 C 843.733 1041.231, 846.178 1056.445, 847.996 1066.500 C 851.954 1088.397, 853.925 1098.545, 855.274 1103.973 C 856.994 1110.899, 856.686 1117.584, 854.537 1119.959 L 852.690 1122 879.368 1122 L 906.046 1122 904.636 1119.750 C 903.069 1117.252, 901.242 1109.113, 898.069 1090.500 C 897.506 1087.200, 896.344 1080.450, 895.486 1075.500 C 894.628 1070.550, 893.497 1064.025, 892.973 1061 C 892.449 1057.975, 891.143 1050.100, 890.071 1043.500 C 887.355 1026.777, 884.016 1007.789, 883.477 1006 C 882.940 1004.218, 880.224 987.193, 879.009 978 C 875.225 949.354, 873.691 934.724, 870.938 901 C 870.332 893.575, 869.198 880.934, 868.418 872.910 C 867.638 864.885, 867 855.098, 867 851.160 C 867 842.959, 866.901 842.900, 858.500 846.087" stroke="none" fill="#f8d8b1" fill-rule="evenodd"/><path d="M 601.722 80.611 C 601.386 80.948, 598.048 81.868, 594.305 82.656 C 581.518 85.348, 575.912 86.686, 565.500 89.529 C 562.200 90.430, 557.700 91.534, 555.500 91.982 C 550.096 93.082, 545.988 94.438, 542.334 96.327 C 540.656 97.195, 536.408 98.871, 532.892 100.052 C 524.562 102.851, 497.633 116.112, 492.500 119.943 C 490.300 121.585, 486.925 123.797, 485 124.858 C 483.075 125.919, 480.695 127.678, 479.711 128.766 C 478.122 130.523, 476.946 130.695, 469.211 130.304 C 461.659 129.922, 460.064 130.139, 457.225 131.932 C 453.793 134.100, 452 137.426, 452 141.625 C 452 142.997, 450.425 146.183, 448.500 148.704 C 445.754 152.300, 445 154.213, 445 157.585 C 445 159.948, 445.450 162.160, 446 162.500 C 447.889 163.667, 446.995 167.766, 443.635 173.346 C 441.784 176.419, 439.715 180.411, 439.036 182.217 C 438.358 184.023, 436.272 189.025, 434.401 193.334 C 432.531 197.643, 430.989 201.918, 430.975 202.834 C 430.962 203.750, 430.027 207.200, 428.898 210.500 C 427.769 213.800, 426.363 218.975, 425.774 222 C 424.317 229.489, 423.621 271.566, 424.882 276 C 428.691 289.399, 430.928 294.844, 434.709 299.914 C 438.542 305.055, 438.472 304.641, 436.362 309.628 C 430.877 322.593, 428.489 340.678, 430.502 354 C 431.415 360.039, 435.507 368.746, 439.358 372.841 C 441.086 374.679, 445.584 377.746, 449.354 379.657 C 456.779 383.419, 456.822 383.523, 453.913 390.669 C 452.797 393.410, 452.872 394.390, 454.473 397.940 C 456.521 402.482, 458.941 403.609, 464.435 402.578 C 467.340 402.033, 468.402 402.414, 471.454 405.094 C 474.733 407.973, 475.467 408.196, 479.775 407.626 L 484.500 407.002 487.440 411.751 C 489.058 414.363, 496.483 422.843, 503.940 430.595 C 511.398 438.347, 519.204 446.989, 521.286 449.798 L 525.072 454.906 521.400 462.203 C 516.235 472.467, 511.182 479.518, 503.839 486.704 C 497.652 492.760, 481.701 504, 479.295 504 C 478.632 504, 476.431 505.125, 474.405 506.500 C 472.379 507.875, 470.021 509, 469.165 509 C 468.310 509, 466.347 510.209, 464.805 511.687 C 460.547 515.766, 460.999 520.042, 466.937 531.875 C 471.821 541.607, 477.242 550.414, 479.029 551.518 C 479.536 551.832, 481.516 554.431, 483.427 557.294 C 485.339 560.157, 490.862 566.409, 495.701 571.186 C 503.991 579.369, 507.380 582.102, 519.500 590.378 C 526.828 595.382, 547.641 606, 550.121 606 C 551.296 606, 555.912 607.157, 560.379 608.571 C 573.906 612.853, 574.505 613, 578.571 613.011 C 580.732 613.017, 584.709 613.692, 587.409 614.511 C 593.145 616.251, 607.965 616.483, 613.007 614.911 C 614.928 614.312, 619.425 613.446, 623 612.986 C 626.575 612.526, 631.300 611.700, 633.500 611.150 C 635.700 610.600, 639.975 609.523, 643 608.757 C 652.419 606.371, 672.666 595.363, 677.500 590 C 678.600 588.780, 681.900 586.186, 684.834 584.237 C 687.768 582.289, 691.329 578.850, 692.748 576.597 C 694.166 574.344, 696.583 571.150, 698.118 569.500 C 701.993 565.334, 705.184 560.610, 709.308 552.933 C 712.915 546.220, 718.988 529.564, 719.015 526.309 C 719.065 520.450, 722.799 521.026, 730.609 528.099 C 733.586 530.794, 736.385 533, 736.829 533 C 737.273 533, 739.406 534.617, 741.568 536.594 C 743.731 538.570, 746.762 540.987, 748.304 541.966 C 752.333 544.521, 764.553 555.965, 784.296 575.673 C 805.745 597.083, 809.305 601.150, 817.178 613.236 C 826.968 628.266, 828.546 630.957, 832.281 639 C 839.618 654.798, 841 658.099, 841 659.822 C 841 660.800, 841.385 662.027, 841.855 662.550 C 842.725 663.517, 847.445 678.447, 848.320 683 C 848.584 684.375, 849.584 688.200, 850.541 691.500 C 851.499 694.800, 852.668 699.862, 853.141 702.750 C 853.613 705.637, 854.433 710.362, 854.962 713.250 C 855.491 716.137, 856.375 721.556, 856.928 725.291 C 857.480 729.026, 858.246 732.589, 858.629 733.208 C 859.012 733.828, 859.694 737.297, 860.145 740.917 C 861.857 754.652, 862.143 756.541, 862.740 758 C 863.653 760.235, 866.149 772.453, 868.921 788.250 C 869.428 791.137, 870.586 796.200, 871.494 799.500 C 872.402 802.800, 873.531 807.300, 874.002 809.500 C 874.473 811.700, 875.150 814.252, 875.506 815.172 C 876.880 818.716, 874.272 820.671, 863.786 823.959 C 852.784 827.409, 852.463 827.517, 838 832.628 C 828.072 836.136, 821.001 836.911, 819.161 834.694 C 818.087 833.400, 817.604 820.321, 816.460 761.543 C 815.897 732.574, 815.592 731, 810.545 731 C 806.517 731, 806 732.731, 806 746.232 C 806 755.376, 805.569 760.096, 804.500 762.654 C 802.493 767.459, 802.276 820.866, 804.250 824.316 C 805.106 825.812, 805.730 834.849, 806.231 853 C 806.633 867.575, 807.402 886.250, 807.941 894.500 C 808.479 902.750, 809.290 915.125, 809.743 922 C 810.195 928.875, 810.993 935.175, 811.515 936 C 812.037 936.825, 812.803 942, 813.216 947.500 C 813.630 953, 814.410 961.325, 814.949 966 C 815.489 970.675, 816.309 978.114, 816.771 982.532 C 817.234 986.949, 818.004 991.198, 818.484 991.974 C 819.259 993.228, 820.026 998.994, 821.615 1015.500 C 821.880 1018.250, 822.489 1021.400, 822.969 1022.500 C 823.449 1023.600, 824.098 1027.333, 824.411 1030.796 C 824.723 1034.259, 825.434 1037.942, 825.989 1038.980 C 826.545 1040.019, 827.016 1042.811, 827.036 1045.184 C 827.055 1047.558, 827.723 1052.200, 828.520 1055.500 C 829.317 1058.800, 829.976 1062.963, 829.984 1064.750 C 829.993 1066.537, 830.450 1068, 831 1068 C 831.553 1068, 832 1070.629, 832 1073.886 C 832 1077.162, 832.662 1081.041, 833.494 1082.636 C 834.315 1084.211, 834.990 1087.386, 834.994 1089.691 C 834.997 1091.996, 835.450 1094.160, 836 1094.500 C 836.550 1094.840, 837 1097.315, 837 1100 C 837 1102.685, 837.450 1105.160, 838 1105.500 C 838.550 1105.840, 839.027 1107.554, 839.059 1109.309 C 839.091 1111.064, 840.108 1114.525, 841.317 1117 C 843.394 1121.251, 843.767 1121.516, 848.061 1121.797 C 851.641 1122.030, 853.007 1121.650, 854.495 1120.005 C 856.688 1117.582, 857.010 1110.961, 855.274 1103.973 C 853.925 1098.545, 851.954 1088.397, 847.996 1066.500 C 846.178 1056.445, 843.733 1041.231, 840.965 1022.754 C 838.328 1005.153, 837.802 1002.132, 836.473 997 C 835.073 991.590, 833.745 983.826, 832.024 971 C 831.544 967.425, 830.407 959.325, 829.496 953 C 824.489 918.225, 818.515 857.462, 819.937 855.776 C 820.273 855.378, 821.887 855.414, 823.524 855.856 C 826.503 856.660, 832.741 855.784, 836.500 854.032 C 837.600 853.520, 840.525 852.436, 843 851.623 C 845.475 850.810, 851.325 848.765, 856 847.078 C 860.675 845.390, 865.063 844.008, 865.750 844.005 C 866.634 844.001, 867 846.096, 867 851.160 C 867 855.098, 867.638 864.885, 868.418 872.910 C 869.198 880.934, 870.332 893.575, 870.938 901 C 873.691 934.724, 875.225 949.354, 879.009 978 C 880.224 987.193, 882.940 1004.218, 883.477 1006 C 884.016 1007.789, 887.355 1026.777, 890.071 1043.500 C 891.143 1050.100, 892.449 1057.975, 892.973 1061 C 893.497 1064.025, 894.628 1070.550, 895.486 1075.500 C 896.344 1080.450, 897.506 1087.200, 898.069 1090.500 C 901.343 1109.703, 903.020 1117.172, 904.636 1119.750 C 905.894 1121.757, 906.854 1122, 913.523 1122 C 920.056 1122, 921 1121.773, 921 1120.200 C 921 1119.210, 921.551 1117.849, 922.225 1117.175 C 923.192 1116.208, 923.192 1115.536, 922.225 1113.989 C 921.551 1112.910, 920.997 1109.884, 920.994 1107.264 C 920.990 1104.644, 920.315 1101.211, 919.494 1099.636 C 918.672 1098.060, 918 1094.824, 918 1092.445 C 918 1090.065, 917.550 1087.840, 917 1087.500 C 916.450 1087.160, 916 1084.010, 916 1080.500 C 916 1076.990, 915.611 1073.877, 915.135 1073.583 C 914.139 1072.968, 912.297 1063.353, 912.070 1057.586 C 911.985 1055.433, 911.614 1053.185, 911.247 1052.590 C 910.531 1051.432, 909.476 1045.594, 908.026 1034.754 C 907.529 1031.043, 906.812 1027.505, 906.433 1026.892 C 906.054 1026.279, 905.351 1022.789, 904.870 1019.138 C 904.390 1015.487, 903.531 1010.025, 902.963 1007 C 902.394 1003.975, 901.522 998.464, 901.026 994.754 C 900.529 991.043, 899.828 987.530, 899.467 986.947 C 898.794 985.858, 897.528 979.058, 896.034 968.500 C 895.566 965.200, 894.417 959.125, 893.480 955 C 891.878 947.955, 891.298 944.867, 889.250 932.496 C 888.794 929.743, 888.101 926.973, 887.710 926.339 C 887.015 925.215, 885.778 918.602, 883.999 906.500 C 882.298 894.929, 881.181 889.102, 880.432 887.889 C 880.016 887.216, 879.285 883.478, 878.807 879.583 C 878.330 875.687, 877.472 869.575, 876.899 866 C 876.327 862.425, 875.635 855.611, 875.361 850.859 L 874.864 842.217 879.682 840.501 C 882.332 839.556, 885.756 838.320, 887.291 837.754 C 888.826 837.187, 891.863 835.433, 894.041 833.856 C 897.899 831.061, 898 830.833, 898 824.954 C 898 821.030, 897.342 817.623, 896.119 815.210 C 895.085 813.170, 893.474 808.800, 892.539 805.500 C 891.604 802.200, 889.947 796.658, 888.857 793.185 C 887.766 789.712, 886.407 784.312, 885.837 781.185 C 885.266 778.058, 884.377 773.250, 883.861 770.500 C 883.345 767.750, 882.554 762.749, 882.104 759.386 C 881.655 756.024, 880.997 752.803, 880.642 752.230 C 880.008 751.204, 878.734 744.307, 876.999 732.500 C 875.343 721.235, 874.188 715.114, 873.513 714.021 C 873.142 713.420, 872.386 710.132, 871.833 706.714 C 869.141 690.060, 866.787 680.263, 861.450 663.500 C 858.422 653.988, 851.786 638.131, 847.430 630 C 846.693 628.625, 844.489 624.461, 842.531 620.746 C 837.929 612.016, 828.902 598.702, 823.918 593.295 C 821.763 590.957, 820 588.559, 820 587.966 C 820 586.332, 789.304 555.995, 782.823 551.224 C 779.700 548.925, 776.884 546.621, 776.565 546.104 C 776.245 545.588, 772.521 542.805, 768.289 539.921 C 764.057 537.037, 758.626 533.175, 756.221 531.339 C 753.815 529.502, 751.460 528, 750.987 528 C 750.514 528, 747.179 525.982, 743.577 523.516 C 734.550 517.336, 717.646 509, 714.140 509 C 712.547 509, 709.685 509.651, 707.780 510.448 C 703.144 512.385, 700.339 511.534, 695.157 506.619 C 690.340 502.050, 681.671 489.487, 682.213 487.861 C 682.404 487.289, 685.696 485.726, 689.530 484.388 C 698.686 481.192, 712.138 474.589, 718.450 470.191 C 725.924 464.984, 740.600 450.353, 745.171 443.552 C 754.673 429.415, 760.835 414.445, 764.331 397 C 765.745 389.941, 765.539 301.308, 764.051 277 C 763.462 267.375, 762.733 253.918, 762.430 247.095 L 761.881 234.689 766.338 230.095 C 771.122 225.162, 771.718 223.315, 772.667 210.500 C 773.103 204.611, 772.738 202.151, 770.369 195 C 768.820 190.325, 766.754 185.427, 765.777 184.115 C 763.356 180.866, 763.481 179.807, 767.500 169.571 C 770.619 161.626, 771 159.633, 771 151.262 C 771 140.641, 770.432 139.042, 765.656 136.225 C 762.855 134.572, 762.143 133.440, 761.591 129.760 C 761.134 126.708, 760.003 124.419, 758.010 122.509 C 756.408 120.975, 754.817 118.320, 754.474 116.609 C 754.131 114.899, 753.655 112.793, 753.415 111.930 C 752.822 109.791, 743.714 106.285, 737 105.610 C 727.336 104.638, 720.646 103.269, 715 101.107 C 711.975 99.949, 708.470 99.001, 707.210 99.001 C 705.951 99, 703.222 98.134, 701.146 97.075 C 697.289 95.107, 687.185 91.395, 671 86 C 669.350 85.450, 666.763 84.567, 665.250 84.039 C 654.371 80.235, 652.158 80, 627.229 80 C 613.536 80, 602.058 80.275, 601.722 80.611 M 724 193.220 C 713.352 197.003, 687.546 200.309, 678.377 199.064 C 672.107 198.214, 669.600 198.864, 653.592 205.490 C 637.685 212.075, 629.644 214.241, 605.500 218.446 C 590.744 221.016, 586.324 220.511, 583.629 215.950 C 581.950 213.106, 581.979 212.915, 584.960 207.271 C 587.968 201.578, 587.980 201.495, 585.855 201.161 C 584.671 200.974, 582.756 201.264, 581.601 201.805 C 576.982 203.967, 560.234 208.498, 547.500 211.031 C 544.200 211.687, 539.250 212.802, 536.500 213.509 C 533.750 214.216, 529.858 215.078, 527.851 215.423 C 519.963 216.784, 517.838 220.671, 511.686 245 C 506.820 264.246, 505.116 275.997, 504.027 297.840 C 502.692 324.591, 500.964 326.186, 487.605 313.001 C 477.710 303.236, 473.863 300.559, 467.896 299.286 C 461.097 297.837, 457.233 299.434, 453.704 305.152 C 451 309.534, 450.210 311.772, 447.930 321.500 C 444.368 336.697, 444.404 347.627, 448.043 355.368 C 449.155 357.735, 451.650 361.208, 453.586 363.086 C 457.076 366.471, 457.196 366.503, 467.620 366.843 C 477.234 367.157, 478.200 367.366, 478.912 369.291 C 479.340 370.449, 479.234 372.886, 478.675 374.707 C 477.714 377.840, 477.875 378.201, 481.698 381.473 C 483.925 383.380, 485.994 386.179, 486.312 387.715 C 487.478 393.354, 496.914 405.780, 507.188 415.205 C 527.075 433.448, 534.447 441.279, 537.446 447.346 C 539.036 450.562, 541.160 453.708, 542.168 454.337 C 545.073 456.151, 544.387 458.850, 538.250 469.761 C 528.859 486.458, 516.502 498.547, 500 507.183 C 491.019 511.883, 482.928 514.044, 473.389 514.290 C 463.783 514.539, 463.820 514.148, 472.341 525.404 C 491.415 550.600, 513.593 571.779, 531.870 582.248 C 547.820 591.386, 561.275 596.285, 581 600.138 C 590.711 602.034, 619.096 601.774, 626 599.724 C 633.326 597.549, 638.808 595.526, 639.648 594.685 C 640.025 594.308, 640.961 594, 641.729 594 C 644.461 594, 654.639 588.581, 663.681 582.312 C 668.912 578.685, 676.541 572.039, 681.414 566.862 C 688.662 559.163, 690.898 555.907, 696.070 545.518 C 702.396 532.811, 703.197 528.774, 699.500 528.221 C 693.978 527.395, 692.289 526.465, 686.755 521.199 C 679.136 513.950, 672.552 504.750, 669.061 496.477 C 667.557 492.910, 666.025 489.692, 665.658 489.325 C 665.291 488.958, 659.480 488.564, 652.745 488.450 C 628.215 488.036, 607.991 481.194, 601.831 471.227 C 600.076 468.387, 599.931 467.447, 600.915 465.287 C 602.048 462.800, 602.293 462.740, 608.792 463.351 C 612.481 463.698, 618.650 464.933, 622.500 466.096 C 626.350 467.258, 632.425 468.820, 636 469.568 C 643.800 471.198, 665.257 471.420, 671.807 469.938 C 674.388 469.354, 678.525 468.409, 681 467.837 C 693.578 464.930, 709.660 455.911, 720.825 445.502 C 731.797 435.273, 742.217 419.555, 746.018 407.500 C 746.711 405.300, 747.642 402.375, 748.086 401 C 748.530 399.625, 749.705 394.675, 750.697 390 C 753.958 374.630, 752.554 290.122, 747.883 220.579 L 746.747 203.657 740.132 197.329 C 736.120 193.491, 732.726 191.052, 731.508 191.133 C 730.404 191.206, 727.025 192.145, 724 193.220 M 706.444 249.865 C 700.266 250.959, 692.810 255.673, 693.191 258.245 C 693.481 260.207, 694.145 260.340, 704 260.418 C 716.865 260.519, 721.202 262.374, 730.488 271.750 C 736.839 278.162, 739.717 279.295, 743.104 276.714 C 745.548 274.854, 746.217 271.519, 745.031 267.116 C 743.746 262.343, 737.217 256.194, 729.614 252.597 C 723.976 249.930, 713.232 248.663, 706.444 249.865 M 600.781 252.399 C 594.149 255.127, 586.317 259.969, 583.241 263.244 C 579.953 266.743, 575.027 277.131, 575.013 280.595 C 575.006 282.321, 575.798 284.412, 576.804 285.322 C 578.499 286.856, 578.961 286.598, 584.472 281.028 C 591.054 274.377, 596.182 271.817, 606.500 270.032 C 618.635 267.933, 621.996 266.820, 624.038 264.225 C 626.258 261.403, 626.488 259.166, 624.915 255.712 C 622.152 249.648, 611.146 248.137, 600.781 252.399 M 714.444 282.369 C 709.237 284.296, 705.990 286.946, 702.937 291.760 C 699.644 296.954, 699.020 302.941, 701.553 305.044 C 702.878 306.143, 703.947 305.500, 708.832 300.666 C 714.136 295.418, 714.899 295, 719.190 295 C 723.100 295, 724.212 295.463, 726.325 297.975 C 727.702 299.611, 729.374 302.648, 730.040 304.725 C 731.687 309.853, 733.775 312, 737.116 312 C 742.901 312, 745.902 304.132, 743.014 296.537 C 741.388 292.259, 735.007 286.149, 729.396 283.494 C 723.807 280.850, 719.438 280.521, 714.444 282.369 M 604.537 288.056 C 595.509 292.560, 590.376 300.654, 591.556 308.524 C 592.367 313.931, 595.063 314.677, 596.989 310.028 C 599.541 303.865, 608.073 297, 613.179 297 C 617.923 297, 623.755 300.599, 625.934 304.870 C 631.174 315.142, 642.289 310.619, 637.562 300.138 C 632.305 288.480, 615.796 282.440, 604.537 288.056 M 456.750 320.692 C 454.580 321.256, 454.516 323.332, 456.571 326.468 C 457.768 328.294, 457.887 329.343, 457.071 330.867 C 453.199 338.103, 460.973 345.156, 467.990 340.774 C 469.702 339.705, 470.436 340.016, 473.727 343.207 C 479.912 349.203, 485.686 349.442, 488.592 343.821 C 489.456 342.151, 489.902 339.747, 489.584 338.480 C 487.774 331.268, 464.525 318.673, 456.750 320.692 M 685.250 320.703 C 683.414 321.384, 683.728 324.444, 685.829 326.345 C 686.835 327.255, 687.981 328, 688.377 328 C 689.627 328, 693.817 333.355, 695.565 337.186 C 698.855 344.400, 694.994 351.672, 687.348 352.662 C 682.968 353.229, 675.402 350.113, 668.239 344.792 L 663.978 341.626 661.239 343.662 C 657.811 346.210, 657.107 350.882, 659.787 353.307 C 660.823 354.244, 665.144 356.809, 669.389 359.006 C 676.235 362.549, 677.898 363, 684.103 363 C 688.226 363, 692.239 362.410, 693.875 361.565 C 698.387 359.232, 703.780 352.481, 705.346 347.206 C 708.055 338.086, 703.212 325.773, 695.690 322.654 C 691.685 320.994, 686.884 320.096, 685.250 320.703 M 640.460 397.065 C 637.848 401.291, 644.989 411.380, 653.561 415.573 C 658.644 418.061, 659.782 418.232, 668.290 417.787 C 678.332 417.261, 681.674 416.040, 688.750 410.309 C 693.571 406.403, 693.839 405.337, 690.927 401.635 C 687.919 397.810, 685.106 398.224, 677.486 403.611 C 668.087 410.257, 656.603 408.501, 647.532 399.033 C 644.579 395.951, 641.652 395.136, 640.460 397.065 M 430.500 503 C 429.400 503.473, 427.182 503.891, 425.571 503.930 C 422.711 503.998, 421.237 504.372, 412 507.365 C 392.610 513.649, 373.020 522.666, 362.141 530.316 C 359.650 532.067, 355.921 534.400, 353.854 535.500 C 349.944 537.581, 342.748 543.131, 333.430 551.250 C 330.432 553.862, 327.607 556, 327.152 556 C 325.668 556, 297.359 584.394, 294.749 588.500 C 293.351 590.700, 290.135 594.506, 287.603 596.958 C 285.072 599.410, 283 601.839, 283 602.355 C 283 602.870, 281.087 605.418, 278.750 608.017 C 274.784 612.425, 263.947 626.871, 261.560 630.932 C 260.977 631.924, 259.634 634.032, 258.576 635.618 C 253.439 643.312, 250 648.909, 250 649.575 C 250 649.980, 248.846 651.824, 247.436 653.672 C 246.026 655.521, 243.943 659.135, 242.806 661.705 C 241.670 664.274, 239.561 668.025, 238.120 670.040 C 236.679 672.054, 232.859 679.282, 229.630 686.101 C 226.402 692.921, 221.790 702.668, 219.380 707.763 C 216.971 712.858, 215 717.538, 215 718.163 C 215 718.789, 213.928 721.595, 212.617 724.400 C 206.698 737.069, 195.071 772.242, 191.924 787 C 191.280 790.025, 190.394 793.625, 189.957 795 C 188.138 800.722, 188.069 803.138, 189.595 807.698 C 191.863 814.477, 193.746 816.120, 206.356 822.322 C 221.159 829.604, 221.366 829.851, 219.069 837.506 C 214.875 851.487, 212.894 861.401, 210.124 882.271 C 209.557 886.545, 208.749 890.595, 208.330 891.271 C 207.910 891.947, 207.222 896.325, 206.801 901 C 206.379 905.675, 205.571 913.100, 205.006 917.500 C 204.440 921.900, 203.598 929.649, 203.135 934.721 C 202.672 939.792, 201.808 944.526, 201.216 945.240 C 200.176 946.493, 199.916 949.773, 198.259 982.500 C 197.842 990.750, 197.054 998.175, 196.508 999 C 195.204 1000.973, 193.951 1040.557, 194.115 1074.615 C 194.208 1093.722, 193.915 1101.935, 193.123 1102.424 C 192.421 1102.858, 192 1106.654, 192 1112.559 L 192 1122 203 1122 L 214 1122 214.046 1106.750 C 214.071 1098.362, 214.544 1079.800, 215.097 1065.500 C 215.650 1051.200, 216.289 1030.950, 216.517 1020.500 C 216.921 1002.005, 218.103 980.931, 220.106 956.500 C 220.647 949.900, 221.515 938.875, 222.034 932 C 223.087 918.058, 224.216 905.716, 226.468 883.500 C 227.305 875.250, 228.444 863.100, 228.999 856.500 C 230.346 840.506, 231.103 835.054, 232.061 834.462 C 232.499 834.191, 237.278 836.034, 242.679 838.557 C 251.454 842.657, 254.076 843.843, 261.500 847.074 C 273.121 852.132, 289.272 857.249, 306.500 861.331 C 325.662 865.871, 332.209 866.996, 339.560 867.015 C 342.827 867.024, 346.115 867.420, 346.866 867.896 C 348.300 868.804, 348.091 875.470, 345.953 897 C 345.434 902.225, 344.523 912.575, 343.928 920 C 343.332 927.425, 342.423 938.675, 341.908 945 C 341.392 951.325, 340.538 969.100, 340.010 984.500 C 339.482 999.900, 338.604 1018.350, 338.059 1025.500 C 337.514 1032.650, 336.583 1045.475, 335.990 1054 C 335.001 1068.223, 334.469 1076.582, 332.412 1110.250 L 331.694 1122 341.347 1122 L 351 1122 351 1107.559 C 351 1099.010, 351.408 1092.866, 352 1092.500 C 352.606 1092.125, 353 1084.843, 353 1074 C 353 1063.157, 353.394 1055.875, 354 1055.500 C 354.612 1055.122, 355 1047.223, 355 1035.141 C 355 1023.874, 355.412 1014.988, 355.959 1014.441 C 356.876 1013.524, 357.228 1004.270, 358.522 947.094 C 358.838 933.121, 359.525 920.888, 360.048 919.910 C 360.572 918.932, 361 909.284, 361 898.470 C 361 883.399, 361.374 877.521, 362.601 873.299 C 363.960 868.626, 364.149 862.868, 363.851 835.315 C 363.522 804.859, 363.382 802.752, 361.612 801.458 C 359.107 799.627, 356 801.261, 356 804.409 C 356 805.696, 355.325 808.662, 354.500 811 C 353.675 813.338, 353 816.680, 353 818.426 C 353 820.172, 352.583 822.028, 352.073 822.550 C 351.563 823.073, 350.925 827.100, 350.656 831.500 C 349.924 843.451, 348.552 851.038, 346.939 852.059 C 344.920 853.337, 334.692 853.223, 331.315 851.885 C 329.767 851.271, 325.800 850.403, 322.500 849.954 C 319.200 849.506, 314.700 848.680, 312.500 848.118 C 310.300 847.557, 306.250 846.629, 303.500 846.055 C 300.750 845.482, 297.600 844.599, 296.500 844.092 C 295.400 843.586, 290.675 841.954, 286 840.467 C 281.325 838.979, 275.830 836.916, 273.790 835.881 C 271.749 834.846, 269.519 834, 268.834 834 C 266.823 834, 235.161 819.248, 227 814.507 C 225.625 813.709, 222.475 812.113, 220 810.961 C 217.525 809.809, 213.363 807.763, 210.750 806.414 C 204.375 803.122, 204.371 802.415, 210.625 781 C 214.053 769.262, 224.258 738.672, 226.972 732 C 228.203 728.975, 229.871 724.700, 230.679 722.500 C 231.487 720.300, 234.140 714.315, 236.574 709.201 C 239.008 704.086, 241 699.492, 241 698.992 C 241 697.629, 249.957 679.946, 252.386 676.513 C 253.549 674.870, 255.283 671.793, 256.240 669.675 C 257.198 667.557, 264.009 656.751, 271.377 645.662 C 284.940 625.250, 287.396 621.789, 295.174 612.124 C 301.159 604.687, 341.355 564.456, 348.036 559.214 C 351.041 556.857, 355.322 553.482, 357.549 551.714 C 359.776 549.946, 364.208 546.925, 367.397 545 C 370.587 543.075, 375.334 540.114, 377.945 538.421 C 384.366 534.257, 406.258 523.177, 412.474 520.945 C 420.707 517.989, 432.161 514.169, 437.500 512.598 C 450.111 508.888, 453.060 506.845, 450.269 503.750 C 449.001 502.344, 447.097 502.014, 440.595 502.070 C 436.143 502.109, 431.600 502.527, 430.500 503" stroke="none" fill="#080706" fill-rule="evenodd"/></svg>